<svg width="1500" height="1500" viewBox="0 0 1500 1500" fill="none" xmlns="http://www.w3.org/2000/svg">
<rect width="1500" height="1500" rx="500" fill="#12061D"/>
<path d="M875.68 259.519C825.848 295.057 773.04 363.751 743.383 496.155C735.886 530.502 724.751 563.982 710.088 596.053C767.638 662.688 848.339 706.787 937.199 719.897C961.122 697.36 986.7 676.449 1013.82 657.596C1088.24 605.046 1138.4 548.163 1162.88 488.57C1166.95 478.602 1170.26 468.525 1172.8 458.557C1102.35 360.826 997.504 288.773 875.57 259.519H875.68Z" fill="url(#paint0_linear_17_25)"/>
<path d="M1056.27 713.505C1053.07 715.781 1050.09 717.948 1047.01 720.223C1123.74 709.171 1194.96 675.041 1250.41 622.6C1250.41 622.6 1250.52 622.491 1250.63 622.383C1242.69 592.695 1232.11 564.091 1219.21 536.787C1187.35 600.171 1132.67 659.439 1056.27 713.505Z" fill="url(#paint1_linear_17_25)"/>
<path d="M661.799 523.893C666.209 510.349 669.957 496.263 673.265 481.636C695.645 381.846 733.35 302.642 785.497 246.083C774.031 245.433 762.455 245 750.879 245C714.056 245.108 678.116 249.117 643.498 256.485C637.875 272.846 633.465 289.532 630.378 306.543C616.928 380.329 627.953 456.391 661.799 523.893Z" fill="url(#paint2_linear_17_25)"/>
<path d="M446.706 733.335C497.64 723.691 544.496 698.338 582.2 660.198C616.928 624.985 643.388 580.02 661.138 526.17C611.526 455.851 537.44 405.035 452.439 382.931C438.217 379.247 423.885 376.43 409.552 374.372C321.795 451.733 261.38 558.241 243.96 678.401C295.556 726.4 371.076 747.637 446.706 733.335Z" fill="url(#paint3_linear_17_25)"/>
<path d="M628.285 966.392C673.266 918.935 704.025 860.643 717.475 797.583C730.815 734.632 726.295 669.297 704.355 608.621C686.495 645.027 662.792 678.615 634.128 707.978C586.06 756.627 525.975 788.915 460.488 801.267C381.44 816.219 302.392 801.05 239 762.153C241.866 884.371 288.832 995.863 364.793 1081.78C397.646 1081.13 430.39 1076.15 462.141 1067.05C525.975 1048.63 583.414 1013.85 628.395 966.501L628.285 966.392Z" fill="url(#paint4_linear_17_25)"/>
<path d="M817.69 993.265C810.634 938.006 818.902 838.433 926.945 730.191C865.096 741.676 807.437 768.114 759.258 807.228C711.08 846.342 674.037 896.725 651.767 953.5C629.497 1010.38 622.551 1071.71 631.812 1131.84C638.206 1173.23 651.987 1213 672.493 1249.51C699.394 1253.63 727.066 1255.8 755.179 1255.69C836.101 1255.36 912.613 1236.62 980.636 1203.57C976.336 1201.4 972.036 1199.13 967.737 1196.85C883.287 1150.16 828.273 1076.59 817.69 993.048V993.265Z" fill="url(#paint5_linear_17_25)"/>
<path d="M1038.74 726.289C931.135 807.551 877.996 898.782 888.91 984.92C898.061 1057.3 954.728 1120.47 1040.17 1154.27C1045.02 1156.22 1049.87 1157.95 1054.83 1159.69C1162.32 1082.98 1238.4 966.392 1260.55 832.255C1237.62 809.393 1211.49 789.457 1182.83 773.205C1138.62 748.067 1089.56 732.14 1038.63 726.397L1038.74 726.289Z" fill="url(#paint6_linear_17_25)"/>
<defs>
<linearGradient id="paint0_linear_17_25" x1="864.009" y1="240.682" x2="1107.61" y2="1173.5" gradientUnits="userSpaceOnUse">
<stop stop-color="#EF552C"/>
<stop offset="0.46" stop-color="#8C2DDA"/>
<stop offset="1" stop-color="#30324A"/>
</linearGradient>
<linearGradient id="paint1_linear_17_25" x1="1021.28" y1="199.648" x2="1264.77" y2="1132.46" gradientUnits="userSpaceOnUse">
<stop stop-color="#EF552C"/>
<stop offset="0.46" stop-color="#8C2DDA"/>
<stop offset="1" stop-color="#30324A"/>
</linearGradient>
<linearGradient id="paint2_linear_17_25" x1="693.085" y1="285.347" x2="936.578" y2="1218.16" gradientUnits="userSpaceOnUse">
<stop stop-color="#EF552C"/>
<stop offset="0.46" stop-color="#8C2DDA"/>
<stop offset="1" stop-color="#30324A"/>
</linearGradient>
<linearGradient id="paint3_linear_17_25" x1="388.352" y1="364.889" x2="631.845" y2="1297.7" gradientUnits="userSpaceOnUse">
<stop stop-color="#EF552C"/>
<stop offset="0.46" stop-color="#8C2DDA"/>
<stop offset="1" stop-color="#30324A"/>
</linearGradient>
<linearGradient id="paint4_linear_17_25" x1="378.772" y1="367.416" x2="622.264" y2="1300.23" gradientUnits="userSpaceOnUse">
<stop stop-color="#EF552C"/>
<stop offset="0.46" stop-color="#8C2DDA"/>
<stop offset="1" stop-color="#30324A"/>
</linearGradient>
<linearGradient id="paint5_linear_17_25" x1="609.496" y1="307.132" x2="852.989" y2="1240.05" gradientUnits="userSpaceOnUse">
<stop stop-color="#EF552C"/>
<stop offset="0.46" stop-color="#8C2DDA"/>
<stop offset="1" stop-color="#30324A"/>
</linearGradient>
<linearGradient id="paint6_linear_17_25" x1="891.432" y1="233.531" x2="1134.93" y2="1166.45" gradientUnits="userSpaceOnUse">
<stop stop-color="#EF552C"/>
<stop offset="0.46" stop-color="#8C2DDA"/>
<stop offset="1" stop-color="#30324A"/>
</linearGradient>
</defs>
</svg>
